<?xml version="1.0" encoding="UTF-8" standalone="no"?>
<!-- Created with Inkscape (http://www.inkscape.org/) -->

<svg
   xmlns:dc="http://purl.org/dc/elements/1.1/"
   xmlns:cc="http://creativecommons.org/ns#"
   xmlns:rdf="http://www.w3.org/1999/02/22-rdf-syntax-ns#"
   xmlns:svg="http://www.w3.org/2000/svg"
   xmlns="http://www.w3.org/2000/svg"
   xmlns:sodipodi="http://sodipodi.sourceforge.net/DTD/sodipodi-0.dtd"
   xmlns:inkscape="http://www.inkscape.org/namespaces/inkscape"
   width="43.467415mm"
   height="41.993431mm"
   viewBox="0 0 43.467415 41.993431"
   version="1.1"
   id="SVGRoot"
   inkscape:version="0.92.4 (5da689c313, 2019-01-14)"
   sodipodi:docname="绘图.svg">
  <defs
     id="defs1886" />
  <sodipodi:namedview
     id="base"
     pagecolor="#000000"
     bordercolor="#999999"
     borderopacity="1.0"
     inkscape:pageopacity="1.0"
     inkscape:pageshadow="0"
     inkscape:zoom="0.35"
     inkscape:cx="458.7011"
     inkscape:cy="212.04607"
     inkscape:document-units="mm"
     inkscape:current-layer="layer1"
     showgrid="false"
     inkscape:window-width="1920"
     inkscape:window-height="1017"
     inkscape:window-x="-8"
     inkscape:window-y="-8"
     inkscape:window-maximized="1"
     fit-margin-top="0"
     fit-margin-left="0"
     fit-margin-right="0"
     fit-margin-bottom="0" />
  <metadata
     id="metadata1889">
    <rdf:RDF>
      <cc:Work
         rdf:about="">
        <dc:format>image/svg+xml</dc:format>
        <dc:type
           rdf:resource="http://purl.org/dc/dcmitype/StillImage" />
        <dc:title></dc:title>
      </cc:Work>
    </rdf:RDF>
  </metadata>
  <g
     inkscape:label="Layer 1"
     inkscape:groupmode="layer"
     id="layer1"
     transform="translate(-88.635335,-162.61043)">
    <g
       transform="matrix(0.26458333,0,0,0.26458333,409.63979,157.98871)"
       id="g1862">
      <g
         transform="translate(3463.0548,-2143.8321)"
         id="g3163">
        <path
           style="fill:#ffffff"
           d="m -4609.2,2191.3 -0.3,-0.6 c -5.5,-7.8 -11.3,-16 -15.5,-24.4 -1.4,-3.1 -4.4,-5 -7.8,-5 -3.3,0 -6.3,1.9 -7.8,5 -4.2,8 -9.2,15.5 -14.1,23 l -0.8,1.1 c -10.8,15.5 -20.8,30.2 -20.8,47 0,26 18.3,44.6 43.5,44.6 25.5,0 44.6,-19.1 44.6,-44.6 -0.3,-16.5 -10.3,-30.8 -21,-46.1 z m -23.9,82.5 c -20.5,0 -35.4,-15.2 -35.4,-36.5 0,-14.1 9.4,-27.7 19.4,-42.4 5.5,-8 11.1,-16 15.5,-24.9 0,-0.3 0.3,-0.3 0.6,-0.3 0.6,0 0.6,0.3 0.6,0.3 4.7,9.2 10.8,18 16.3,25.5 l 0.3,0.6 c 9.9,14.1 19.1,27.7 19.1,41.2 0.2,20.7 -15.6,36.5 -36.4,36.5 z"
           class="st0"
           id="path3165"
           inkscape:connector-curvature="0" />
        <path
           style="fill:#ffffff"
           d="m -4634.7,2222.9 c 0,-6.1 -5,-11.1 -11.1,-11.1 -6.1,0 -11.1,5 -11.1,11.1 0,6.1 5,11.1 11.1,11.1 6.1,0 11.1,-5 11.1,-11.1 z m -15.2,0 c 0,-2.5 1.9,-4.2 4.2,-4.2 2.5,0 4.2,1.9 4.2,4.2 0,2.5 -1.9,4.2 -4.2,4.2 -2.3,0.2 -4.2,-1.8 -4.2,-4.2 z"
           class="st0"
           id="path3167"
           inkscape:connector-curvature="0" />
        <path
           style="fill:#ffffff"
           d="m -4619.2,2235.1 c -6.1,0 -11.1,5 -11.1,11.1 0,6.1 5,11.1 11.1,11.1 6.1,0 11.1,-5 11.1,-11.1 0,-6.2 -5,-11.1 -11.1,-11.1 z m 0,15.2 c -2.5,0 -4.2,-1.9 -4.2,-4.2 0,-2.3 1.9,-4.2 4.2,-4.2 2.3,0 4.2,1.9 4.2,4.2 0,2.3 -1.7,4.2 -4.2,4.2 z"
           class="st0"
           id="path3169"
           inkscape:connector-curvature="0" />
        <rect
           style="fill:#ffffff"
           height="6.6999998"
           width="52.299999"
           class="st0"
           transform="matrix(0.4959,-0.8684,0.8684,0.4959,-4275.9199,-2895.8818)"
           y="2231.6001"
           x="-4658.3999"
           id="rect3171" />
      </g>
      <g
         id="g4510">
        <path
           inkscape:connector-curvature="0"
           id="path6514"
           class="st0"
           d="M -1069.4589,110.18323 V 37.383228 c 0,-10 -8.2,-18.3 -18.3,-18.3 -10.1,0 -18.3,8.2 -18.3,18.3 v 72.800002 c -10.8,6.1 -17.6,17.6 -17.6,30.5 0,19.7 15.8,35.5 35.5,35.5 19.7,0 35.9,-16.1 35.9,-35.5 0.1,-12.2 -6.4,-24 -17.2,-30.5 z m -6.8,6.8 c 9,4.3 14.7,13.6 14.7,23.7 0,14.7 -11.8,26.5 -26.5,26.5 -14.7,0 -26.5,-11.8 -26.5,-26.5 0,-10 5.7,-19 15,-23.7 1.8,-0.7 2.9,-2.5 2.9,-4 V 37.283228 c 0,-5 4.3,-9.3 9.3,-9.3 5,0 9.3,4.3 9.3,9.3 v 75.700002 c -0.3,1.9 0.4,3.3 1.8,4 z"
           style="fill:#ffffff" />
        <path
           inkscape:connector-curvature="0"
           id="path6516"
           class="st0"
           d="M -1069.4589,110.18323 V 37.383228 c 0,-10 -8.2,-18.3 -18.3,-18.3 -10.1,0 -18.3,8.2 -18.3,18.3 v 72.800002 c -10.8,6.1 -17.6,17.6 -17.6,30.5 0,19.7 15.8,35.5 35.5,35.5 19.7,0 35.9,-16.1 35.9,-35.5 0.1,-12.2 -6.4,-24 -17.2,-30.5 z m -6.8,6.8 c 9,4.3 14.7,13.6 14.7,23.7 0,14.7 -11.8,26.5 -26.5,26.5 -14.7,0 -26.5,-11.8 -26.5,-26.5 0,-10 5.7,-19 15,-23.7 1.8,-0.7 2.9,-2.5 2.9,-4 V 37.283228 c 0,-5 4.3,-9.3 9.3,-9.3 5,0 9.3,4.3 9.3,9.3 v 75.700002 c -0.3,1.9 0.4,3.3 1.8,4 z"
           style="fill:#ffffff" />
        <path
           inkscape:connector-curvature="0"
           id="path6518"
           class="st0"
           d="m -1083.4589,66.883228 c 0,-2.1 -1.8,-4.3 -4.3,-4.3 -2.5,0 -4.3,1.8 -4.3,4.3 v 54.900002 c -8.6,1.8 -14.7,9.3 -14.7,18.3 0,10.4 8.6,19 18.6,19 10.4,0 19,-8.6 19,-19 0,-8.6 -6.1,-16.5 -14.7,-18.3 V 66.883228 Z m 6.1,73.400002 c 0,5.7 -4.7,10.4 -10.4,10.4 -5.7,0 -10.4,-4.7 -10.4,-10.4 0,-5.7 4.7,-10.4 10.4,-10.4 5.8,0 10.4,4.7 10.4,10.4 z"
           style="fill:#ffffff" />
        <path
           inkscape:connector-curvature="0"
           id="path6520"
           class="st0"
           d="m -1054.7589,49.983228 c 1.5,0 2.9,-0.7 4,-1.8 1.1,-1 1.8,-2.5 1.8,-4 0,-0.7 0,-1.5 -0.4,-2.1 -0.4,-0.7 -0.7,-1.1 -1.5,-2.1 -0.4,-0.4 -0.4,-0.4 -0.7,-0.4 -0.4,-0.4 -0.7,-0.7 -1.1,-0.7 -0.4,-0.4 -0.7,-0.4 -1.1,-0.4 -1.8,-0.4 -4,0.4 -5.4,1.5 -0.4,0.4 -0.7,1.1 -1.1,1.8 -0.4,0.7 -0.4,1.5 -0.4,2.1 0,1.5 0.7,2.9 1.8,4 1.2,1.4 2.7,2.1 4.1,2.1 z"
           style="fill:#ffffff" />
        <path
           inkscape:connector-curvature="0"
           id="path6522"
           class="st0"
           d="m -1050.7589,75.383228 c -2.1,-2.1 -5.7,-2.1 -8.2,0 -0.4,0.4 -0.7,1.1 -1.1,1.8 -0.4,0.7 -0.4,1.5 -0.4,2.1 0,0.7 0,1.8 0.4,2.1 0.4,0.7 0.7,1.1 1.1,1.8 1.1,1.1 2.5,1.8 4,1.8 1.5,0 2.9,-0.7 4,-1.8 0.4,-0.4 0.7,-1.1 1.1,-1.8 0.4,-0.7 0.4,-1.5 0.4,-2.1 0,-0.7 0,-1.5 -0.4,-2.1 0.2,-0.7 -0.2,-1 -0.9,-1.8 z m -0.8,2.5 z"
           style="fill:#ffffff" />
        <path
           inkscape:connector-curvature="0"
           id="path6524"
           class="st0"
           d="m -1058.6589,92.983228 c -1.1,1.1 -1.8,2.5 -1.8,4 0,0.7 0,1.5 0.4,2.1 0.4,0.7 0.7,1.100002 1.1,1.800002 1.1,1.1 2.5,1.8 4,1.8 0.7,0 1.5,0 2.1,-0.4 0.7,-0.4 1.1,-0.7 1.8,-1.5 0.4,-0.4 0.7,-1.100002 1.1,-1.800002 0.4,-0.7 0.4,-1.5 0.4,-2.1 0,-1.5 -0.7,-2.9 -1.8,-4 -1.6,-2 -5.5,-2 -7.3,0.1 z"
           style="fill:#ffffff" />
        <path
           inkscape:connector-curvature="0"
           id="path6526"
           class="st0"
           d="m -1050.7589,57.883228 c -2.1,-2.1 -5.7,-2.1 -8.2,0 -0.4,0.4 -0.7,1.1 -1.1,1.8 -0.4,0.7 -0.4,1.5 -0.4,2.1 0,0.6 0,1.8 0.4,2.1 0.4,0.7 0.7,1.1 1.1,1.8 1.1,1.1 2.5,1.8 4,1.8 1.5,0 2.9,-0.7 4,-1.8 1.1,-1.1 1.8,-2.5 1.8,-4 0,-0.7 0,-1.5 -0.4,-2.1 -0.1,-0.7 -0.5,-1 -1.2,-1.7 z"
           style="fill:#ffffff" />
      </g>
    </g>
  </g>
</svg>
